<?xml version="1.0" encoding="UTF-8"?>
<!DOCTYPE svg PUBLIC "-//W3C//DTD SVG 1.1//EN" "http://www.w3.org/Graphics/SVG/1.1/DTD/svg11.dtd">
<svg xmlns="http://www.w3.org/2000/svg" version="1.1" width="200px" height="200px" style="shape-rendering:geometricPrecision; text-rendering:geometricPrecision; image-rendering:optimizeQuality; fill-rule:evenodd; clip-rule:evenodd" xmlns:xlink="http://www.w3.org/1999/xlink">
<g><path style="opacity:0.004" fill="#40579c" d="M -0.5,-0.5 C -0.166667,-0.5 0.166667,-0.5 0.5,-0.5C 0.31468,0.170143 -0.0186536,0.170143 -0.5,-0.5 Z"/></g>
<g><path style="opacity:0.004" fill="#0000ff" d="M 4.5,-0.5 C 4.83333,-0.5 5.16667,-0.5 5.5,-0.5C 5.31468,0.170143 4.98135,0.170143 4.5,-0.5 Z"/></g>
<g><path style="opacity:0.004" fill="#0000fe" d="M 63.5,-0.5 C 65.5,-0.5 67.5,-0.5 69.5,-0.5C 67.5,0.833333 65.5,0.833333 63.5,-0.5 Z"/></g>
<g><path style="opacity:0.004" fill="#0004df" d="M 146.5,-0.5 C 146.833,-0.5 147.167,-0.5 147.5,-0.5C 147.315,0.170143 146.981,0.170143 146.5,-0.5 Z"/></g>
<g><path style="opacity:0.004" fill="#3496aa" d="M 145.5,2.5 C 144.833,2.5 144.167,2.5 143.5,2.5C 143.082,1.77842 142.416,1.27842 141.5,1C 143.352,0.227395 144.686,0.727395 145.5,2.5 Z"/></g>
<g><path style="opacity:0.004" fill="#2f61a2" d="M 197.5,-0.5 C 198.167,-0.5 198.833,-0.5 199.5,-0.5C 199.5,0.166667 199.5,0.833333 199.5,1.5C 198.167,1.5 197.5,0.833333 197.5,-0.5 Z"/></g>
<g><path style="opacity:0.004" fill="#253e67" d="M 77.5,2.5 C 77.8966,1.47498 78.5632,1.30831 79.5,2C 78.9056,2.46434 78.2389,2.63101 77.5,2.5 Z"/></g>
<g><path style="opacity:0.93" fill="#0c0d0e" d="M 143.5,2.5 C 144.167,3.83333 144.833,3.83333 145.5,2.5C 148.212,4.60495 151.212,6.27162 154.5,7.5C 154.833,7.5 155.167,7.5 155.5,7.5C 155.5,8.16667 155.833,8.5 156.5,8.5C 156.5,9.16667 156.833,9.5 157.5,9.5C 157.5,10.1667 157.833,10.5 158.5,10.5C 159.301,12.0418 159.634,13.7085 159.5,15.5C 158.596,16.209 158.263,17.209 158.5,18.5C 157.662,18.8417 157.328,19.5084 157.5,20.5C 156.833,20.5 156.5,20.8333 156.5,21.5C 155.443,22.206 155.776,22.5393 157.5,22.5C 158.899,23.8897 160.566,24.8897 162.5,25.5C 164.091,27.6326 166.091,29.2993 168.5,30.5C 171.018,33.5164 173.684,36.3498 176.5,39C 176.167,39.3333 175.833,39.6667 175.5,40C 176.897,43.3986 178.564,46.5653 180.5,49.5C 179.167,50.1667 179.167,50.8333 180.5,51.5C 180.5,52.1667 180.5,52.8333 180.5,53.5C 180.5,60.1667 180.5,66.8333 180.5,73.5C 180.833,74.1667 181.167,74.8333 181.5,75.5C 181.328,76.4916 181.662,77.1583 182.5,77.5C 182.5,77.8333 182.5,78.1667 182.5,78.5C 182.5,80.1667 182.5,81.8333 182.5,83.5C 183.369,85.717 183.702,88.0504 183.5,90.5C 183.5,91.1667 183.833,91.5 184.5,91.5C 184.181,96.3633 184.514,101.03 185.5,105.5C 185.216,107.415 185.549,109.081 186.5,110.5C 186.5,110.833 186.5,111.167 186.5,111.5C 186.263,112.791 186.596,113.791 187.5,114.5C 187.5,114.833 187.5,115.167 187.5,115.5C 187.5,120.714 188.166,125.381 189.5,129.5C 189.5,130.5 189.5,131.5 189.5,132.5C 189.5,133.833 189.5,135.167 189.5,136.5C 189.5,139.167 189.5,141.833 189.5,144.5C 189.5,144.833 189.5,145.167 189.5,145.5C 189.5,146.167 189.5,146.833 189.5,147.5C 189.5,147.833 189.5,148.167 189.5,148.5C 189.5,150.167 189.5,151.833 189.5,153.5C 188.833,153.5 188.5,153.833 188.5,154.5C 188.5,155.167 188.5,155.833 188.5,156.5C 188.5,157.167 188.5,157.833 188.5,158.5C 187.662,158.842 187.328,159.508 187.5,160.5C 186.833,160.5 186.5,160.833 186.5,161.5C 186.5,161.833 186.5,162.167 186.5,162.5C 185.662,162.842 185.328,163.508 185.5,164.5C 184.833,164.5 184.5,164.833 184.5,165.5C 183.833,165.5 183.5,165.833 183.5,166.5C 182.833,166.5 182.5,166.833 182.5,167.5C 181.833,167.5 181.5,167.833 181.5,168.5C 180.833,168.5 180.5,168.833 180.5,169.5C 180.167,169.5 179.833,169.5 179.5,169.5C 178.833,169.5 178.5,169.833 178.5,170.5C 177.508,170.328 176.842,170.662 176.5,171.5C 175.833,171.5 175.5,171.833 175.5,172.5C 174.833,172.5 174.5,172.833 174.5,173.5C 173.833,173.5 173.5,173.833 173.5,174.5C 172.833,174.5 172.5,174.833 172.5,175.5C 172.167,175.5 171.833,175.5 171.5,175.5C 170.833,175.5 170.5,175.833 170.5,176.5C 169.833,176.5 169.5,176.833 169.5,177.5C 169.167,177.5 168.833,177.5 168.5,177.5C 167.833,177.5 167.5,177.833 167.5,178.5C 167.167,178.5 166.833,178.5 166.5,178.5C 165.833,178.5 165.5,178.833 165.5,179.5C 162.887,180.469 160.553,181.803 158.5,183.5C 157.5,182.167 156.5,182.167 155.5,183.5C 154.833,183.5 154.167,183.5 153.5,183.5C 153.167,183.5 152.833,183.5 152.5,183.5C 151.167,184.167 149.833,184.833 148.5,185.5C 147.508,185.328 146.842,185.662 146.5,186.5C 145.209,186.263 144.209,186.596 143.5,187.5C 143.167,187.5 142.833,187.5 142.5,187.5C 140.585,187.216 138.919,187.549 137.5,188.5C 137.167,188.5 136.833,188.5 136.5,188.5C 135.167,188.5 133.833,188.5 132.5,188.5C 131.833,188.5 131.167,188.5 130.5,188.5C 129.833,188.5 129.5,188.833 129.5,189.5C 129.167,189.5 128.833,189.5 128.5,189.5C 127.508,189.328 126.842,189.662 126.5,190.5C 126.167,190.5 125.833,190.5 125.5,190.5C 124.153,191.171 122.986,191.171 122,190.5C 121.667,191.167 121.333,191.833 121,192.5C 115.987,191.189 111.154,191.522 106.5,193.5C 95.1135,197.154 83.4468,198.321 71.5,197C 65.2931,194.926 58.9598,193.426 52.5,192.5C 51.0813,191.549 49.4147,191.216 47.5,191.5C 46.791,190.596 45.791,190.263 44.5,190.5C 44.1583,189.662 43.4916,189.328 42.5,189.5C 42.1583,188.662 41.4916,188.328 40.5,188.5C 40.5,187.833 40.1667,187.5 39.5,187.5C 39.1667,187.5 38.8333,187.5 38.5,187.5C 38.5,186.833 38.1667,186.5 37.5,186.5C 37.1583,185.662 36.4916,185.328 35.5,185.5C 35.1583,184.662 34.4916,184.328 33.5,184.5C 33.1583,183.662 32.4916,183.328 31.5,183.5C 31.1583,182.662 30.4916,182.328 29.5,182.5C 29.1583,181.662 28.4916,181.328 27.5,181.5C 27.1583,180.662 26.4916,180.328 25.5,180.5C 25.1583,179.662 24.4916,179.328 23.5,179.5C 23.5,178.833 23.1667,178.5 22.5,178.5C 22.1583,177.662 21.4916,177.328 20.5,177.5C 20.5,176.833 20.1667,176.5 19.5,176.5C 19.1667,175.5 18.5,174.833 17.5,174.5C 17.5,173.833 17.1667,173.5 16.5,173.5C 16.5,172.833 16.1667,172.5 15.5,172.5C 13.1377,169.808 10.8044,167.141 8.5,164.5C 8.67158,163.508 8.33825,162.842 7.5,162.5C 7.67158,161.508 7.33825,160.842 6.5,160.5C 6.5,160.167 6.5,159.833 6.5,159.5C 6.5,158.833 6.16667,158.5 5.5,158.5C 5.5,158.167 5.5,157.833 5.5,157.5C 5.58747,154.402 5.08747,154.068 4,156.5C 4.79762,147.857 4.63095,139.191 3.5,130.5C 3.66667,129.833 3.83333,129.167 4,128.5C 4.33333,129.5 4.66667,130.5 5,131.5C 5.711,129.101 5.54433,126.768 4.5,124.5C 4.84569,123.304 5.34569,123.304 6,124.5C 6.711,122.101 6.54433,119.768 5.5,117.5C 5.84569,116.304 6.34569,116.304 7,117.5C 8.1224,112.898 8.6224,108.232 8.5,103.5C 9.33825,103.158 9.67158,102.492 9.5,101.5C 10.3382,101.158 10.6716,100.492 10.5,99.5C 10.5,99.1667 10.5,98.8333 10.5,98.5C 10.5,96.8333 10.5,95.1667 10.5,93.5C 11.3382,93.1583 11.6716,92.4916 11.5,91.5C 12.3382,91.1583 12.6716,90.4916 12.5,89.5C 12.5,89.1667 12.5,88.8333 12.5,88.5C 13.3382,88.1583 13.6716,87.4916 13.5,86.5C 14.1667,86.5 14.5,86.1667 14.5,85.5C 15.3382,85.1583 15.6716,84.4916 15.5,83.5C 16.4614,81.7354 16.7947,79.7354 16.5,77.5C 17.4345,76.4324 17.7678,75.099 17.5,73.5C 18.4511,72.0813 18.7845,70.4147 18.5,68.5C 18.5,68.1667 18.5,67.8333 18.5,67.5C 19.3382,67.1583 19.6716,66.4916 19.5,65.5C 20.3382,65.1583 20.6716,64.4916 20.5,63.5C 21.3382,63.1583 21.6716,62.4916 21.5,61.5C 22.3382,61.1583 22.6716,60.4916 22.5,59.5C 23.3382,59.1583 23.6716,58.4916 23.5,57.5C 24.3382,57.1583 24.6716,56.4916 24.5,55.5C 24.5,55.1667 24.5,54.8333 24.5,54.5C 25.3382,54.1583 25.6716,53.4916 25.5,52.5C 25.5,52.1667 25.5,51.8333 25.5,51.5C 26.8333,50.1667 26.8333,48.8333 25.5,47.5C 25.5,47.1667 25.5,46.8333 25.5,46.5C 25.5,45.8333 25.1667,45.5 24.5,45.5C 24.5,45.1667 24.5,44.8333 24.5,44.5C 24.1667,43.8333 23.8333,43.1667 23.5,42.5C 24.1667,42.5 24.5,42.1667 24.5,41.5C 24.5,41.1667 24.5,40.8333 24.5,40.5C 25.1667,40.5 25.5,40.1667 25.5,39.5C 25.5,38.1667 25.5,36.8333 25.5,35.5C 26.4345,34.4324 26.7678,33.099 26.5,31.5C 27.3382,31.1583 27.6716,30.4916 27.5,29.5C 28.9301,27.614 30.5968,25.9473 32.5,24.5C 35.659,23.6693 38.659,22.6693 41.5,21.5C 43.5914,21.6816 45.5914,21.3482 47.5,20.5C 48.6125,18.5808 49.9458,16.9142 51.5,15.5C 53.153,15.3404 54.4863,14.6737 55.5,13.5C 56.1667,13.5 56.5,13.1667 56.5,12.5C 60.9545,10.439 65.6211,8.93895 70.5,8C 72.5844,7.30276 74.2511,6.1361 75.5,4.5C 79.3585,3.16081 83.3585,2.32748 87.5,2C 106.198,1.20521 124.865,1.37188 143.5,2.5 Z"/></g>
<g><path style="opacity:0.004" fill="#00fefe" d="M -0.5,1.5 C 0.309116,3.29221 0.809116,5.29221 1,7.5C 1.66667,46.1667 1.66667,84.8333 1,123.5C 0.78997,125.058 0.28997,126.391 -0.5,127.5C -0.5,85.5 -0.5,43.5 -0.5,1.5 Z"/></g>
<g><path style="opacity:0.004" fill="#2e295e" d="M 75.5,4.5 C 74.8333,3.16667 74.8333,3.16667 75.5,4.5 Z"/></g>
<g><path style="opacity:0.004" fill="#01eaea" d="M 154.5,7.5 C 156.709,6.02421 158.042,6.69087 158.5,9.5C 158.167,9.5 157.833,9.5 157.5,9.5C 156.833,9.5 156.5,9.16667 156.5,8.5C 155.833,8.5 155.5,8.16667 155.5,7.5C 155.167,7.5 154.833,7.5 154.5,7.5 Z"/></g>
<g><path style="opacity:0.004" fill="#236c32" d="M 60.5,8.5 C 61.8333,9.16667 61.8333,9.16667 60.5,8.5 Z"/></g>
<g><path style="opacity:1" fill="#dadbd9" d="M 85.5,8.5 C 103.503,8.33339 121.503,8.50006 139.5,9C 143.976,10.4801 148.643,11.3134 153.5,11.5C 151.487,17.6459 147.487,22.1459 141.5,25C 132.7,27.8298 123.7,29.8298 114.5,31C 105.058,33.6901 95.7243,36.3568 86.5,39C 92.9605,34.9125 95.7939,29.0792 95,21.5C 94.1667,20.6667 93.3333,19.8333 92.5,19C 82.4742,18.5022 72.4742,18.5022 62.5,19C 63.5505,17.6152 64.8839,16.6152 66.5,16C 73.5851,15.1141 79.9185,12.6141 85.5,8.5 Z"/></g>
<g><path style="opacity:0.004" fill="#00c6e6" d="M 158.5,9.5 C 159.833,10.1667 159.833,10.1667 158.5,9.5 Z"/></g>
<g><path style="opacity:0.004" fill="#358b97" d="M 56.5,12.5 C 55.8333,12.5 55.5,12.8333 55.5,13.5C 53.0248,13.2533 53.0248,12.5866 55.5,11.5C 56.1067,11.6236 56.44,11.9569 56.5,12.5 Z"/></g>
<g><path style="opacity:0.004" fill="#00cdde" d="M 160.5,13.5 C 161.833,14.1667 161.833,14.1667 160.5,13.5 Z"/></g>
<g><path style="opacity:0.004" fill="#255783" d="M 51.5,15.5 C 50.8333,14.1667 50.8333,14.1667 51.5,15.5 Z"/></g>
<g><path style="opacity:0.004" fill="#23bfe0" d="M 159.5,15.5 C 160.598,16.6009 160.765,17.9343 160,19.5C 159.764,21.1193 158.931,22.1193 157.5,22.5C 155.776,22.5393 155.443,22.206 156.5,21.5C 157.167,21.5 157.5,21.1667 157.5,20.5C 158.338,20.1583 158.672,19.4916 158.5,18.5C 159.404,17.791 159.737,16.791 159.5,15.5 Z"/></g>
<g><path style="opacity:0.004" fill="#082d29" d="M 41.5,21.5 C 40.8333,20.1667 40.8333,20.1667 41.5,21.5 Z"/></g>
<g><path style="opacity:0.004" fill="#14484b" d="M 32.5,24.5 C 31.7611,24.631 31.0944,24.4643 30.5,24C 31.4368,23.3083 32.1034,23.475 32.5,24.5 Z"/></g>
<g><path style="opacity:0.004" fill="#00a272" d="M 162.5,24.5 C 163.833,25.1667 163.833,25.1667 162.5,24.5 Z"/></g>
<g><path style="opacity:1" fill="#dbdddb" d="M 64.5,38.5 C 60.2984,38.8168 56.2984,38.4834 52.5,37.5C 53.8333,36.1667 53.8333,34.8333 52.5,33.5C 51.3991,32.4017 50.0657,32.235 48.5,33C 44.8735,35.2513 43.7069,38.4179 45,42.5C 45.8159,43.8228 46.9826,44.4894 48.5,44.5C 53.1667,44.5 57.8333,44.5 62.5,44.5C 62.5,45.5 62.5,46.5 62.5,47.5C 70.1629,47.0225 77.8296,46.5225 85.5,46C 88.2154,44.0922 91.2154,42.7589 94.5,42C 107.662,38.3752 120.995,35.7085 134.5,34C 139.788,31.737 145.121,29.5704 150.5,27.5C 153.534,28.5671 156.534,29.7337 159.5,31C 162.397,33.41 165.397,35.5767 168.5,37.5C 171.086,40.6793 172.586,44.3459 173,48.5C 173.333,54.5 173.667,60.5 174,66.5C 174.708,67.3805 175.542,68.0472 176.5,68.5C 177.446,85.5105 178.612,102.511 180,119.5C 183.707,131.345 184.373,143.345 182,155.5C 179.381,159.95 176.214,163.95 172.5,167.5C 170.264,169.893 167.597,171.727 164.5,173C 144.377,180.403 123.71,185.07 102.5,187C 96.7299,189.903 90.5633,191.069 84,190.5C 80.0982,190.488 76.5982,189.821 73.5,188.5C 74.1667,156.833 74.8333,125.167 75.5,93.5C 79.5293,105.06 87.5293,110.226 99.5,109C 104.958,106.422 107.291,102.088 106.5,96C 105.577,85.3887 100.244,77.7221 90.5,73C 82.4821,69.8428 77.1488,72.3428 74.5,80.5C 73.8333,80.1667 73.1667,79.8333 72.5,79.5C 72.657,71.1422 70.4903,63.4756 66,56.5C 61.6734,52.453 56.5068,50.2864 50.5,50C 44.9374,47.3845 39.2708,45.0511 33.5,43C 32.3832,39.9269 32.2165,36.7603 33,33.5C 34.008,31.741 35.508,30.5743 37.5,30C 53.8147,25.1277 70.4813,23.2944 87.5,24.5C 87.2623,28.138 85.5956,30.9713 82.5,33C 76.9201,36.3611 70.9201,38.1945 64.5,38.5 Z"/></g>
<g><path style="opacity:0.004" fill="#065d40" d="M 168.5,30.5 C 168.369,29.7611 168.536,29.0944 169,28.5C 169.692,29.4368 169.525,30.1034 168.5,30.5 Z"/></g>
<g><path style="opacity:0.004" fill="#1feaeb" d="M 27.5,29.5 C 26.6618,29.8417 26.3284,30.5084 26.5,31.5C 25.5655,32.5676 25.2322,33.901 25.5,35.5C 25.5,36.8333 25.5,38.1667 25.5,39.5C 24.8333,39.5 24.5,39.8333 24.5,40.5C 24.5,40.8333 24.5,41.1667 24.5,41.5C 23.8333,41.5 23.5,41.8333 23.5,42.5C 23.8333,43.1667 24.1667,43.8333 24.5,44.5C 23.8333,44.5 23.5,44.8333 23.5,45.5C 22.6091,44.7387 21.9424,43.7387 21.5,42.5C 24.0073,40.1918 24.674,37.5251 23.5,34.5C 23.8156,31.7071 24.9822,29.3738 27,27.5C 27.4643,28.0944 27.631,28.7611 27.5,29.5 Z"/></g>
<g><path style="opacity:1" fill="#2f3030" d="M 168.5,37.5 C 170.624,38.0312 172.124,39.3645 173,41.5C 174.976,50.3944 176.142,59.3944 176.5,68.5C 175.542,68.0472 174.708,67.3805 174,66.5C 173.667,60.5 173.333,54.5 173,48.5C 172.586,44.3459 171.086,40.6793 168.5,37.5 Z"/></g>
<g><path style="opacity:1" fill="#373839" d="M 52.5,33.5 C 46.251,35.2606 44.9177,38.9273 48.5,44.5C 46.9826,44.4894 45.8159,43.8228 45,42.5C 43.7069,38.4179 44.8735,35.2513 48.5,33C 50.0657,32.235 51.3991,32.4017 52.5,33.5 Z"/></g>
<g><path style="opacity:1" fill="#656766" d="M 52.5,37.5 C 56.2984,38.4834 60.2984,38.8168 64.5,38.5C 60.0189,39.6484 55.3522,39.8151 50.5,39C 51.0442,38.2828 51.7109,37.7828 52.5,37.5 Z"/></g>
<g><path style="opacity:0.004" fill="#3ff3ff" d="M 23.5,45.5 C 23.8333,45.5 24.1667,45.5 24.5,45.5C 25.1667,45.5 25.5,45.8333 25.5,46.5C 24.8333,46.5 24.5,46.8333 24.5,47.5C 23.6618,47.1583 23.3284,46.4916 23.5,45.5 Z"/></g>
<g><path style="opacity:1" fill="#cececd" d="M 36.5,50.5 C 32.644,59.5658 29.3106,68.8992 26.5,78.5C 28.0461,79.684 29.7127,80.684 31.5,81.5C 32.5353,83.1284 32.5353,84.795 31.5,86.5C 30.5207,85.2347 29.5207,83.9014 28.5,82.5C 27.2244,89.5064 26.2244,96.5064 25.5,103.5C 24.7611,103.631 24.0944,103.464 23.5,103C 25.8334,89.4609 24.3334,88.6275 19,100.5C 17.7229,110.494 16.5562,120.494 15.5,130.5C 14.5,130.5 13.5,130.5 12.5,130.5C 12.7373,131.791 12.404,132.791 11.5,133.5C 12.6652,122.506 13.8319,111.506 15,100.5C 20.0238,90.7474 23.3571,80.414 25,69.5C 29.2039,63.0516 31.7039,56.0516 32.5,48.5C 34.3797,48.2291 35.713,48.8958 36.5,50.5 Z"/></g>
<g><path style="opacity:0.004" fill="#29d8ea" d="M 24.5,47.5 C 24.8333,47.5 25.1667,47.5 25.5,47.5C 25.5,48.8333 25.5,50.1667 25.5,51.5C 25.5,51.8333 25.5,52.1667 25.5,52.5C 24.6618,52.8417 24.3284,53.5084 24.5,54.5C 24.5,54.8333 24.5,55.1667 24.5,55.5C 23.6618,55.8417 23.3284,56.5084 23.5,57.5C 22.6618,57.8417 22.3284,58.5084 22.5,59.5C 21.6618,59.8417 21.3284,60.5084 21.5,61.5C 20.6618,61.8417 20.3284,62.5084 20.5,63.5C 19.6618,63.8417 19.3284,64.5084 19.5,65.5C 18.6618,65.8417 18.3284,66.5084 18.5,67.5C 18.5,67.8333 18.5,68.1667 18.5,68.5C 17.5489,69.9187 17.2155,71.5853 17.5,73.5C 16.5655,74.5676 16.2322,75.901 16.5,77.5C 15.7109,77.2172 15.0442,76.7172 14.5,76C 15.7367,71.5545 16.9034,67.0545 18,62.5C 20.7181,57.7313 22.8847,52.7313 24.5,47.5 Z"/></g>
<g><path style="opacity:1" fill="#132239" d="M 134.5,106.5 C 134.643,104.738 134.309,103.071 133.5,101.5C 128.208,100.505 122.875,100.172 117.5,100.5C 122.316,99.6739 127.316,99.1739 132.5,99C 124.968,91.7389 121.802,82.9056 123,72.5C 124.371,69.6291 126.537,67.6291 129.5,66.5C 126.216,65.343 122.882,65.1764 119.5,66C 117.861,69.0977 116.527,72.2644 115.5,75.5C 114.167,75.5 112.833,75.5 111.5,75.5C 111.959,65.6976 116.959,61.3643 126.5,62.5C 129.5,62.6667 132.5,62.8333 135.5,63C 140.169,67.6694 145.003,72.5028 150,77.5C 154.01,83.2782 155.344,89.6116 154,96.5C 150.96,102.603 146.126,104.769 139.5,103C 137.945,101.711 136.279,101.044 134.5,101C 135.807,102.943 135.807,104.777 134.5,106.5 Z"/></g>
<g><path style="opacity:1" fill="#112037" d="M 80.5,64.5 C 86.5,66.1667 92.5,67.8333 98.5,69.5C 98.5,70.5 98.5,71.5 98.5,72.5C 92.3699,71.8427 86.5366,70.1761 81,67.5C 80.5172,66.552 80.3505,65.552 80.5,64.5 Z"/></g>
<g><path style="opacity:0.004" fill="#04f1ef" d="M 180.5,49.5 C 181.961,51.3516 182.961,53.5182 183.5,56C 183.431,63.7642 183.097,71.2642 182.5,78.5C 182.5,78.1667 182.5,77.8333 182.5,77.5C 182.672,76.5084 182.338,75.8417 181.5,75.5C 181.167,74.8333 180.833,74.1667 180.5,73.5C 181.833,66.8333 181.833,60.1667 180.5,53.5C 180.5,52.8333 180.5,52.1667 180.5,51.5C 180.5,50.8333 180.5,50.1667 180.5,49.5 Z"/></g>
<g><path style="opacity:1" fill="#132239" d="M 75.5,93.5 C 74.7051,89.2147 74.3718,84.8814 74.5,80.5C 77.1488,72.3428 82.4821,69.8428 90.5,73C 100.244,77.7221 105.577,85.3887 106.5,96C 107.291,102.088 104.958,106.422 99.5,109C 87.5293,110.226 79.5293,105.06 75.5,93.5 Z"/></g>
<g><path style="opacity:1" fill="#d8d9d6" d="M 129.5,70.5 C 137.988,70.1642 144.155,73.8308 148,81.5C 151.338,87.5647 151.171,93.3981 147.5,99C 144.833,99.6667 142.167,99.6667 139.5,99C 128.156,91.8974 124.823,82.3974 129.5,70.5 Z"/></g>
<g><path style="opacity:1" fill="#dadcda" d="M 82.5,75.5 C 97.1703,78.0072 103.67,86.6738 102,101.5C 101.535,102.931 100.701,104.097 99.5,105C 91.0248,107.179 84.8581,104.346 81,96.5C 77.8956,91.5598 76.8956,86.2264 78,80.5C 79.0591,78.3408 80.5591,76.6741 82.5,75.5 Z"/></g>
<g><path style="opacity:0.004" fill="#044f27" d="M 15.5,83.5 C 14.6618,83.8417 14.3284,84.5084 14.5,85.5C 13.8333,85.5 13.5,85.8333 13.5,86.5C 13.1667,86.5 12.8333,86.5 12.5,86.5C 12.848,84.2872 13.6813,82.2872 15,80.5C 15.4828,81.448 15.6495,82.448 15.5,83.5 Z"/></g>
<g><path style="opacity:1" fill="#19273d" d="M 142.5,85.5 C 145.352,85.3524 147.019,86.6857 147.5,89.5C 145.167,94.8333 142.833,94.8333 140.5,89.5C 140.752,87.9271 141.418,86.5938 142.5,85.5 Z"/></g>
<g><path style="opacity:0.004" fill="#02d6cf" d="M 184.5,91.5 C 183.833,91.5 183.5,91.1667 183.5,90.5C 183.702,88.0504 183.369,85.717 182.5,83.5C 183.825,82.0474 184.658,82.3808 185,84.5C 185.796,87.0385 185.629,89.3718 184.5,91.5 Z"/></g>
<g><path style="opacity:1" fill="#dddedd" d="M 36.5,50.5 C 44.1406,54.3242 52.1406,56.9909 60.5,58.5C 64.0453,64.9986 66.212,71.9986 67,79.5C 67.1667,97.6667 67.3333,115.833 67.5,134C 67.4996,152.512 66.8329,170.679 65.5,188.5C 47.0318,185.183 30.8651,177.183 17,164.5C 10.8629,154.977 9.02956,144.643 11.5,133.5C 12.404,132.791 12.7373,131.791 12.5,130.5C 13.5,130.5 14.5,130.5 15.5,130.5C 16.5562,120.494 17.7229,110.494 19,100.5C 24.3334,88.6275 25.8334,89.4609 23.5,103C 24.0944,103.464 24.7611,103.631 25.5,103.5C 24.7608,114.175 24.2608,124.842 24,135.5C 25.3561,136.38 26.8561,136.714 28.5,136.5C 28.7942,128.594 29.7942,120.928 31.5,113.5C 34.3918,120.366 37.5585,127.033 41,133.5C 45.8169,131.396 50.6502,129.396 55.5,127.5C 56.1667,134.167 56.8333,140.833 57.5,147.5C 58.8333,148.833 60.1667,148.833 61.5,147.5C 62.4938,138.014 62.8271,128.348 62.5,118.5C 61.209,118.263 60.209,118.596 59.5,119.5C 54.1882,121.821 48.8548,124.155 43.5,126.5C 40.9107,121.244 38.4107,115.911 36,110.5C 34.5098,109.272 33.0098,109.272 31.5,110.5C 31.3347,106.818 31.5014,103.152 32,99.5C 35.9767,105.122 39.1433,111.122 41.5,117.5C 48.7234,114.219 55.7234,110.385 62.5,106C 63.3802,104.644 63.7135,103.144 63.5,101.5C 62.1266,101.343 60.7932,101.51 59.5,102C 54.5725,104.38 49.7392,106.88 45,109.5C 39.9961,102.163 35.4961,94.4966 31.5,86.5C 32.5353,84.795 32.5353,83.1284 31.5,81.5C 29.7127,80.684 28.0461,79.684 26.5,78.5C 29.3106,68.8992 32.644,59.5658 36.5,50.5 Z"/></g>
<g><path style="opacity:1" fill="#132238" d="M 93.5,91.5 C 98.4857,91.3049 100.152,93.4716 98.5,98C 93.2791,98.6099 91.6124,96.4432 93.5,91.5 Z"/></g>
<g><path style="opacity:0.004" fill="#16d9db" d="M 12.5,86.5 C 12.5,87.1667 12.5,87.8333 12.5,88.5C 12.5,88.8333 12.5,89.1667 12.5,89.5C 11.6618,89.8417 11.3284,90.5084 11.5,91.5C 10.6618,91.8417 10.3284,92.5084 10.5,93.5C 9.16667,95.1667 9.16667,96.8333 10.5,98.5C 10.5,98.8333 10.5,99.1667 10.5,99.5C 9.66175,99.8417 9.32842,100.508 9.5,101.5C 8.66175,101.842 8.32842,102.508 8.5,103.5C 8.33796,101.112 8.00463,98.6122 7.5,96C 8.52016,92.3963 10.1868,89.2297 12.5,86.5 Z"/></g>
<g><path style="opacity:1" fill="#04152b" d="M 117.5,100.5 C 122.875,100.172 128.208,100.505 133.5,101.5C 134.309,103.071 134.643,104.738 134.5,106.5C 132.779,112.027 129.112,113.86 123.5,112C 119.225,110.562 116.559,107.729 115.5,103.5C 115.64,101.97 116.307,100.97 117.5,100.5 Z"/></g>
<g><path style="opacity:0.004" fill="#01f0f5" d="M 185.5,105.5 C 185.343,104.127 185.51,102.793 186,101.5C 186.765,103.066 186.598,104.399 185.5,105.5 Z"/></g>
<g><path style="opacity:0.004" fill="#0fc4bc" d="M 6.5,104.5 C 7.78786,106.035 7.78786,107.701 6.5,109.5C 6.19283,108.113 6.19283,106.446 6.5,104.5 Z"/></g>
<g><path style="opacity:1" fill="#5983f8" d="M 31.5,86.5 C 35.4961,94.4966 39.9961,102.163 45,109.5C 49.7392,106.88 54.5725,104.38 59.5,102C 60.7932,101.51 62.1266,101.343 63.5,101.5C 63.7135,103.144 63.3802,104.644 62.5,106C 55.7234,110.385 48.7234,114.219 41.5,117.5C 39.1433,111.122 35.9767,105.122 32,99.5C 31.5014,103.152 31.3347,106.818 31.5,110.5C 31.5,111.5 31.5,112.5 31.5,113.5C 29.7942,120.928 28.7942,128.594 28.5,136.5C 26.8561,136.714 25.3561,136.38 24,135.5C 24.2608,124.842 24.7608,114.175 25.5,103.5C 26.2244,96.5064 27.2244,89.5064 28.5,82.5C 29.5207,83.9014 30.5207,85.2347 31.5,86.5 Z"/></g>
<g><path style="opacity:1" fill="#ce58f4" d="M 59.5,119.5 C 61.4722,128.44 62.1389,137.773 61.5,147.5C 60.1667,148.833 58.8333,148.833 57.5,147.5C 57.8303,140.468 57.497,133.468 56.5,126.5C 55.8933,126.624 55.56,126.957 55.5,127.5C 50.6502,129.396 45.8169,131.396 41,133.5C 37.5585,127.033 34.3918,120.366 31.5,113.5C 31.5,112.5 31.5,111.5 31.5,110.5C 33.0098,109.272 34.5098,109.272 36,110.5C 38.4107,115.911 40.9107,121.244 43.5,126.5C 48.8548,124.155 54.1882,121.821 59.5,119.5 Z"/></g>
<g><path style="opacity:0.004" fill="#2ad5f7" d="M 188.5,115.5 C 188.167,115.5 187.833,115.5 187.5,115.5C 187.5,115.167 187.5,114.833 187.5,114.5C 187.737,113.209 187.404,112.209 186.5,111.5C 186.5,111.167 186.5,110.833 186.5,110.5C 186.393,108.621 186.893,108.288 188,109.5C 188.495,111.473 188.662,113.473 188.5,115.5 Z"/></g>
<g><path style="opacity:1" fill="#142339" d="M 158.5,111.5 C 162.273,110.822 165.106,112.156 167,115.5C 167.303,119.529 167.803,123.529 168.5,127.5C 173.565,131.074 177.399,135.74 180,141.5C 181.449,154.103 175.949,161.603 163.5,164C 156.5,164.667 149.5,164.667 142.5,164C 141.667,163.167 140.833,162.333 140,161.5C 138.59,154.45 136.923,147.45 135,140.5C 130.839,139.812 126.673,138.979 122.5,138C 118.5,135 118.5,132 122.5,129C 132.57,128.58 142.57,127.746 152.5,126.5C 151.512,120.163 153.512,115.163 158.5,111.5 Z"/></g>
<g><path style="opacity:1" fill="#0b1c34" d="M 130.5,115.5 C 137.5,115.5 144.5,115.5 151.5,115.5C 151.5,116.5 151.5,117.5 151.5,118.5C 144.426,118.161 137.426,118.661 130.5,120C 125.898,122.804 121.232,125.304 116.5,127.5C 116.393,125.097 117.393,123.264 119.5,122C 123.096,119.539 126.763,117.373 130.5,115.5 Z"/></g>
<g><path style="opacity:1" fill="#999a98" d="M 72.5,79.5 C 73.1667,79.8333 73.8333,80.1667 74.5,80.5C 74.3718,84.8814 74.7051,89.2147 75.5,93.5C 74.8333,125.167 74.1667,156.833 73.5,188.5C 73.8077,152.142 73.4744,115.809 72.5,79.5 Z"/></g>
<g><path style="opacity:0.004" fill="#00fffe" d="M 4.5,120.5 C 5.83333,121.167 5.83333,121.167 4.5,120.5 Z"/></g>
<g><path style="opacity:0.004" fill="#1efbff" d="M 188.5,115.5 C 189.638,118.304 189.805,121.304 189,124.5C 188.502,121.518 188.335,118.518 188.5,115.5 Z"/></g>
<g><path style="opacity:0.004" fill="#00acb1" d="M 189.5,128.5 C 190.833,129.167 190.833,129.167 189.5,128.5 Z"/></g>
<g><path style="opacity:1" fill="#dadcda" d="M 159.5,115.5 C 160.822,115.33 161.989,115.663 163,116.5C 163.338,121.547 164.005,126.547 165,131.5C 174.246,135.083 177.913,141.75 176,151.5C 173.685,155.817 170.185,158.65 165.5,160C 158.174,160.5 150.841,160.666 143.5,160.5C 143.38,158.266 143.713,156.099 144.5,154C 141.814,151.488 140.814,148.321 141.5,144.5C 140.5,144.5 139.5,144.5 138.5,144.5C 139.136,141.894 139.136,139.394 138.5,137C 135.5,136.667 132.5,136.333 129.5,136C 127.381,135.902 125.714,135.069 124.5,133.5C 134.782,131.836 145.115,130.336 155.5,129C 156.293,125.589 156.793,122.089 157,118.5C 158.045,117.627 158.878,116.627 159.5,115.5 Z"/></g>
<g><path style="opacity:1" fill="#323333" d="M 176.5,68.5 C 180.108,93.1149 183.108,117.948 185.5,143C 186.902,154.343 182.569,162.509 172.5,167.5C 176.214,163.95 179.381,159.95 182,155.5C 184.373,143.345 183.707,131.345 180,119.5C 178.612,102.511 177.446,85.5105 176.5,68.5 Z"/></g>
<g><path style="opacity:0.004" fill="#04f7f3" d="M 190.5,153.5 C 190.784,151.585 190.451,149.919 189.5,148.5C 189.5,148.167 189.5,147.833 189.5,147.5C 190.833,146.833 190.833,146.167 189.5,145.5C 189.5,145.167 189.5,144.833 189.5,144.5C 190.216,142.444 190.883,140.277 191.5,138C 190.956,137.283 190.289,136.783 189.5,136.5C 189.5,135.167 189.5,133.833 189.5,132.5C 190.397,131.402 191.23,131.402 192,132.5C 192.167,135.167 192.333,137.833 192.5,140.5C 192.044,144.146 192.044,147.646 192.5,151C 191.934,151.995 191.267,152.828 190.5,153.5 Z"/></g>
<g><path style="opacity:1" fill="#d69de8" d="M 55.5,127.5 C 55.56,126.957 55.8933,126.624 56.5,126.5C 57.497,133.468 57.8303,140.468 57.5,147.5C 56.8333,140.833 56.1667,134.167 55.5,127.5 Z"/></g>
<g><path style="opacity:1" fill="#d17aee" d="M 59.5,119.5 C 60.209,118.596 61.209,118.263 62.5,118.5C 62.8271,128.348 62.4938,138.014 61.5,147.5C 62.1389,137.773 61.4722,128.44 59.5,119.5 Z"/></g>
<g><path style="opacity:1" fill="#434544" d="M 60.5,58.5 C 63.9024,60.431 66.069,63.431 67,67.5C 68.0448,74.1253 68.7114,80.792 69,87.5C 69.5,121.498 69.6667,155.498 69.5,189.5C 67.901,189.768 66.5676,189.434 65.5,188.5C 66.8329,170.679 67.4996,152.512 67.5,134C 67.3333,115.833 67.1667,97.6667 67,79.5C 66.212,71.9986 64.0453,64.9986 60.5,58.5 Z"/></g>
<g><path style="opacity:0.004" fill="#40fdfe" d="M 2.5,135.5 C 3.64966,140.316 3.81632,145.316 3,150.5C 2.50074,145.511 2.33407,140.511 2.5,135.5 Z"/></g>
<g><path style="opacity:0.004" fill="#22e5fc" d="M -0.5,131.5 C 1.28429,154.005 1.61763,176.671 0.5,199.5C 0.166667,199.5 -0.166667,199.5 -0.5,199.5C -0.5,176.833 -0.5,154.167 -0.5,131.5 Z"/></g>
<g><path style="opacity:0.004" fill="#35def1" d="M 5.5,157.5 C 5.5,157.833 5.5,158.167 5.5,158.5C 6.16667,158.5 6.5,158.833 6.5,159.5C 6.5,159.833 6.5,160.167 6.5,160.5C 6.18999,161.738 5.68999,161.738 5,160.5C 4.25988,159.251 4.42654,158.251 5.5,157.5 Z"/></g>
<g><path style="opacity:0.004" fill="#00bdd0" d="M 7.5,162.5 C 6.83333,163.167 6.83333,163.167 7.5,162.5 Z"/></g>
<g><path style="opacity:0.004" fill="#19c1e3" d="M 8.5,164.5 C 7.83333,165.167 7.83333,165.167 8.5,164.5 Z"/></g>
<g><path style="opacity:0.004" fill="#11eefe" d="M 15.5,172.5 C 16.1667,172.5 16.5,172.833 16.5,173.5C 17.1667,173.5 17.5,173.833 17.5,174.5C 17.1034,175.525 16.4368,175.692 15.5,175C 14.2264,174.023 14.2264,173.189 15.5,172.5 Z"/></g>
<g><path style="opacity:0.004" fill="#06fbfb" d="M 19.5,176.5 C 20.1667,176.5 20.5,176.833 20.5,177.5C 20.5,177.833 20.5,178.167 20.5,178.5C 18.5759,178.289 18.2426,177.623 19.5,176.5 Z"/></g>
<g><path style="opacity:0.004" fill="#22e3ef" d="M 188.5,154.5 C 188.5,153.833 188.833,153.5 189.5,153.5C 189.833,153.5 190.167,153.5 190.5,153.5C 190.561,159.484 188.728,164.817 185,169.5C 178.42,173.074 172.087,177.074 166,181.5C 165.536,180.906 165.369,180.239 165.5,179.5C 165.5,178.833 165.833,178.5 166.5,178.5C 166.833,179.833 167.167,179.833 167.5,178.5C 168.167,178.5 168.5,178.167 168.5,177.5C 168.833,177.5 169.167,177.5 169.5,177.5C 170.167,177.5 170.5,177.167 170.5,176.5C 170.5,175.833 170.833,175.5 171.5,175.5C 171.833,176.833 172.167,176.833 172.5,175.5C 173.167,175.5 173.5,175.167 173.5,174.5C 174.167,174.5 174.5,174.167 174.5,173.5C 175.167,173.5 175.5,173.167 175.5,172.5C 176.167,172.5 176.5,172.167 176.5,171.5C 177.492,171.672 178.158,171.338 178.5,170.5C 179.167,170.5 179.5,170.167 179.5,169.5C 179.833,169.5 180.167,169.5 180.5,169.5C 181.167,169.5 181.5,169.167 181.5,168.5C 182.167,168.5 182.5,168.167 182.5,167.5C 183.167,167.5 183.5,167.167 183.5,166.5C 184.167,166.5 184.5,166.167 184.5,165.5C 185.167,165.5 185.5,165.167 185.5,164.5C 186.338,164.158 186.672,163.492 186.5,162.5C 186.5,162.167 186.5,161.833 186.5,161.5C 187.167,161.5 187.5,161.167 187.5,160.5C 188.338,160.158 188.672,159.492 188.5,158.5C 188.5,157.833 188.5,157.167 188.5,156.5C 189.833,155.833 189.833,155.167 188.5,154.5 Z"/></g>
<g><path style="opacity:0.004" fill="#07f6fc" d="M 20.5,178.5 C 21.1667,178.5 21.8333,178.5 22.5,178.5C 23.1667,178.5 23.5,178.833 23.5,179.5C 23.8417,180.338 24.5084,180.672 25.5,180.5C 25.5,180.833 25.5,181.167 25.5,181.5C 22.9367,182.377 21.27,181.377 20.5,178.5 Z"/></g>
<g><path style="opacity:0.004" fill="#09baa8" d="M 158.5,183.5 C 158.103,184.525 157.437,184.692 156.5,184C 157.094,183.536 157.761,183.369 158.5,183.5 Z"/></g>
<g><path style="opacity:0.004" fill="#46c8e4" d="M 152.5,183.5 C 152.833,184.833 153.167,184.833 153.5,183.5C 154.167,183.5 154.833,183.5 155.5,183.5C 150.011,188.668 143.677,190.334 136.5,188.5C 136.833,188.5 137.167,188.5 137.5,188.5C 139.415,188.784 141.081,188.451 142.5,187.5C 142.833,187.5 143.167,187.5 143.5,187.5C 144.791,187.737 145.791,187.404 146.5,186.5C 147.492,186.672 148.158,186.338 148.5,185.5C 149.833,184.833 151.167,184.167 152.5,183.5 Z"/></g>
<g><path style="opacity:0.004" fill="#18f1fc" d="M 25.5,181.5 C 26.1667,181.5 26.8333,181.5 27.5,181.5C 27.8417,182.338 28.5084,182.672 29.5,182.5C 29.8417,183.338 30.5084,183.672 31.5,183.5C 31.8417,184.338 32.5084,184.672 33.5,184.5C 33.8417,185.338 34.5084,185.672 35.5,185.5C 35.8417,186.338 36.5084,186.672 37.5,186.5C 38.1667,186.5 38.5,186.833 38.5,187.5C 38.8333,187.5 39.1667,187.5 39.5,187.5C 40.1667,187.5 40.5,187.833 40.5,188.5C 40.8417,189.338 41.5084,189.672 42.5,189.5C 42.8417,190.338 43.5084,190.672 44.5,190.5C 45.209,191.404 46.209,191.737 47.5,191.5C 46.828,192.267 45.9947,192.934 45,193.5C 38.5222,190.343 32.0222,187.343 25.5,184.5C 25.5,183.5 25.5,182.5 25.5,181.5 Z"/></g>
<g><path style="opacity:0.004" fill="#32dff3" d="M 130.5,188.5 C 131.167,188.5 131.833,188.5 132.5,188.5C 130.683,191.575 128.016,192.741 124.5,192C 125.056,191.617 125.389,191.117 125.5,190.5C 125.833,190.5 126.167,190.5 126.5,190.5C 127.492,190.672 128.158,190.338 128.5,189.5C 128.833,189.5 129.167,189.5 129.5,189.5C 130.167,189.5 130.5,189.167 130.5,188.5 Z"/></g>
<g><path style="opacity:0.004" fill="#2f94d2" d="M 52.5,192.5 C 51.8333,193.167 51.8333,193.167 52.5,192.5 Z"/></g>
<g><path style="opacity:0.004" fill="#13d3ff" d="M 113.5,192.5 C 114.833,193.167 114.833,193.167 113.5,192.5 Z"/></g>
<g><path style="opacity:0.004" fill="#08a7e4" d="M 106.5,193.5 C 107.239,193.369 107.906,193.536 108.5,194C 107.563,194.692 106.897,194.525 106.5,193.5 Z"/></g>
<g><path style="opacity:0.004" fill="#06a7d9" d="M 103.5,194.5 C 104.833,195.167 104.833,195.167 103.5,194.5 Z"/></g>
<g><path style="opacity:0.004" fill="#939960" d="M 199.5,198.5 C 199.5,198.833 199.5,199.167 199.5,199.5C 198.83,199.019 198.83,198.685 199.5,198.5 Z"/></g>
</svg>
